<?xml version="1.0" standalone="no"?>
<!DOCTYPE svg PUBLIC "-//W3C//DTD SVG 20010904//EN"
 "http://www.w3.org/TR/2001/REC-SVG-20010904/DTD/svg10.dtd">
<svg version="1.0" xmlns="http://www.w3.org/2000/svg"
 width="112.000000pt" height="112.000000pt" viewBox="0 0 112.000000 112.000000"
 preserveAspectRatio="xMidYMid meet">
<metadata>
Created by potrace 1.14, written by Peter Selinger 2001-2017
</metadata>
<g transform="translate(0.000000,112.000000) scale(0.100000,-0.100000)"
fill="#000000" stroke="none">
<path d="M652 1023 c-22 -4 -21 -6 13 -33 50 -40 71 -69 79 -110 8 -46 -16
-84 -47 -74 -59 17 -138 59 -152 80 -22 34 -19 84 7 111 26 28 6 31 -22 3 -11
-11 -20 -33 -20 -49 0 -16 -6 -31 -12 -34 -10 -3 -8 -10 5 -24 16 -19 16 -21
2 -27 -20 -7 -10 -26 15 -26 10 0 40 -22 68 -49 l50 -49 -25 -11 c-34 -16 -75
-14 -101 5 -32 22 -43 7 -12 -16 39 -30 90 -25 167 16 74 39 93 67 93 137 0
33 -8 50 -41 89 -22 26 -36 48 -30 48 9 0 64 -51 86 -81 35 -45 109 -165 107
-172 -1 -5 18 -33 44 -63 54 -63 77 -68 119 -24 16 17 32 30 37 30 9 0 11
-114 2 -159 -6 -27 -10 -31 -40 -31 -30 0 -36 5 -59 51 -30 59 -103 142 -117
133 -5 -4 8 -25 30 -48 21 -22 52 -65 68 -95 16 -29 38 -58 51 -64 41 -18 127
12 93 33 -9 6 -12 34 -11 98 1 52 -2 93 -8 96 -6 4 -7 14 -4 23 5 13 3 15 -13
9 -10 -5 -28 -11 -39 -14 -18 -4 -18 -3 4 22 18 19 27 23 33 14 6 -10 8 -9 8
3 0 30 -13 28 -52 -6 -21 -19 -46 -35 -56 -35 -33 0 -62 12 -62 26 0 7 -14 28
-30 46 -17 18 -40 53 -52 77 -17 36 -19 47 -9 63 11 18 11 18 -12 3 -24 -15
-25 -15 -45 18 -11 19 -35 42 -52 51 -18 9 -34 15 -34 15 -1 -1 -11 -4 -24 -6z
m381 -335 c-9 -10 -26 -18 -38 -18 -12 0 -29 8 -38 18 -15 16 -12 17 38 17 50
0 53 -1 38 -17z"/>
<path d="M880 1023 c-20 -7 -50 -34 -50 -44 0 -5 12 -4 26 1 14 6 59 10 100
10 41 0 74 4 74 9 0 22 -108 39 -150 24z"/>
<path d="M402 999 c-18 -12 -31 -23 -29 -26 5 -4 77 36 77 43 0 9 -16 3 -48
-17z"/>
<path d="M586 1011 c-3 -4 -6 -36 -8 -69 -2 -61 10 -91 30 -78 14 8 26 108 17
135 -6 21 -29 28 -39 12z m20 -78 c-11 -11 -17 4 -9 23 7 18 8 18 11 1 2 -10
1 -21 -2 -24z"/>
<path d="M302 928 c-29 -22 -50 -43 -48 -46 3 -2 11 2 19 9 7 8 30 25 50 39
20 14 37 28 37 33 0 10 1 11 -58 -35z"/>
<path d="M936 928 c-22 -67 -4 -170 24 -142 15 15 9 146 -7 152 -7 2 -15 -2
-17 -10z m20 -105 c-10 -10 -19 5 -10 18 6 11 8 11 12 0 2 -7 1 -15 -2 -18z"/>
<path d="M192 838 c-32 -24 -61 -35 -120 -44 l-77 -13 69 5 c71 5 128 27 160
63 26 28 19 26 -32 -11z"/>
<path d="M23 628 c-20 -9 -23 -19 -23 -65 0 -44 5 -58 25 -78 13 -14 31 -25
39 -25 9 0 20 -9 26 -20 12 -23 87 -80 176 -133 48 -29 72 -37 109 -37 30 0
71 -11 113 -29 95 -41 130 -49 285 -61 126 -10 207 -29 207 -51 0 -13 -89 -21
-280 -25 -201 -4 -275 5 -435 51 -27 8 -79 19 -115 24 -36 5 -83 16 -104 25
-21 9 -40 16 -42 16 -2 0 -4 -49 -4 -110 l0 -110 365 0 c391 0 380 -2 350 50
-8 14 -14 28 -15 32 0 4 48 9 108 11 135 6 182 15 182 34 0 8 18 22 40 31 34
15 40 21 40 48 0 23 6 34 25 42 29 13 32 38 8 64 -15 17 -15 19 3 39 19 21 19
21 -1 18 -11 -3 -21 -14 -23 -26 -3 -19 -11 -22 -98 -28 -117 -9 -158 -4 -226
28 -57 26 -126 48 -251 78 -77 19 -125 45 -212 115 -105 85 -212 121 -272 92z
m150 -39 c34 -17 79 -45 101 -62 89 -70 158 -107 239 -127 97 -25 202 -59 272
-90 45 -19 64 -21 188 -18 118 3 137 1 135 -12 -3 -13 -30 -15 -168 -15 -138
0 -181 4 -265 23 -136 32 -202 56 -320 113 -76 37 -108 59 -134 91 -39 49 -89
93 -97 85 -3 -3 28 -38 68 -79 110 -111 262 -182 502 -233 109 -24 143 -27
227 -22 123 6 139 3 139 -33 0 -22 -6 -29 -37 -39 -32 -10 -44 -10 -74 3 -21
8 -84 20 -140 26 -200 20 -248 29 -316 61 -39 18 -94 35 -128 39 -33 3 -75 15
-94 26 -18 10 -45 25 -60 33 -14 8 -50 38 -79 68 -29 29 -57 53 -61 53 -5 0
-20 9 -35 21 -34 27 -36 81 -4 103 33 24 72 19 141 -15z m301 -510 c5 -4 -8
-4 -29 1 -20 4 -39 11 -43 14 -8 9 62 -5 72 -15z m173 5 c-3 -3 -12 -4 -19 -1
-8 3 -5 6 6 6 11 1 17 -2 13 -5z"/>
</g>
</svg>
